<?xml version="1.0" standalone="no"?>
<!DOCTYPE svg PUBLIC "-//W3C//DTD SVG 20010904//EN"
 "http://www.w3.org/TR/2001/REC-SVG-20010904/DTD/svg10.dtd">
<svg version="1.0" xmlns="http://www.w3.org/2000/svg"
 width="1024.000000pt" height="1024.000000pt" viewBox="0 0 1024.000000 1024.000000"
 preserveAspectRatio="xMidYMid meet">
<metadata>
Created by potrace 1.11, written by Peter Selinger 2001-2013
</metadata>
<g transform="translate(0.000000,1024.000000) scale(0.100000,-0.100000)"
fill="#000000" stroke="none">
<path d="M1320 8199 c0 -5 -8 -9 -18 -9 -11 0 -27 -9 -37 -20 -10 -11 -25 -22
-35 -25 -31 -10 -47 -64 -46 -153 1 -58 5 -85 15 -91 9 -6 10 -10 2 -12 -17
-6 -21 -166 -6 -205 9 -22 10 -36 2 -49 -5 -10 -12 -60 -14 -110 l-3 -91 52
-73 c72 -100 148 -213 148 -218 0 -6 135 -185 163 -215 12 -13 29 -37 37 -54
21 -41 77 -124 108 -159 l26 -29 -2 -173 c-2 -144 0 -173 12 -173 9 0 14 -9
13 -20 -1 -11 -7 -20 -15 -20 -7 0 -11 -4 -8 -9 9 -14 -20 -21 -33 -8 -9 9
-14 8 -21 -3 -7 -12 -13 -12 -37 0 -15 7 -48 15 -73 17 -25 2 -51 4 -57 5 -14
1 -18 48 -4 48 9 0 13 183 5 213 -4 13 -13 16 -40 14 -19 -3 -38 1 -42 7 -4 7
-47 11 -114 11 -107 0 -107 0 -113 -25 -6 -29 -6 -16 -2 -311 3 -248 8 -270
65 -286 34 -10 657 -9 695 1 39 9 81 54 96 102 19 59 20 496 2 518 -7 9 -17
13 -22 11 -4 -3 -6 5 -3 17 3 13 6 34 6 48 -1 25 -1 25 8 2 5 -12 7 -29 4 -37
-4 -9 0 -15 9 -15 12 0 14 12 12 63 -2 34 -4 71 -4 82 -1 20 -12 36 -77 115
-16 21 -46 62 -64 91 -19 30 -63 92 -98 139 -35 46 -67 91 -70 100 -3 8 -22
35 -42 60 -20 25 -50 65 -66 90 -16 25 -33 48 -39 52 -6 4 -6 8 -1 8 6 0 -2
12 -15 28 -14 15 -38 48 -52 73 -25 45 -26 51 -23 186 2 77 6 145 9 150 4 6
35 11 69 13 35 1 79 3 98 4 54 4 59 0 54 -52 -9 -86 -10 -113 -2 -118 4 -3 5
-23 2 -44 -6 -38 -5 -39 27 -45 50 -8 230 -14 256 -8 15 3 22 12 22 27 0 11 2
122 6 246 6 225 6 226 -18 260 -42 64 -48 65 -394 66 -177 1 -313 -2 -313 -7z
m700 -304 c0 -5 -5 -3 -10 5 -5 8 -10 20 -10 25 0 6 5 3 10 -5 5 -8 10 -19 10
-25z m-3 -187 c-3 -8 -6 -5 -6 6 -1 11 2 17 5 13 3 -3 4 -12 1 -19z m-29
-1133 c-3 -3 -9 2 -12 12 -6 14 -5 15 5 6 7 -7 10 -15 7 -18z m-242 -62 c-11
-11 -19 6 -11 24 8 17 8 17 12 0 3 -10 2 -21 -1 -24z m-26 -278 c0 -8 -6 -15
-13 -15 -8 0 -14 7 -14 15 0 8 6 15 14 15 7 0 13 -7 13 -15z"/>
<path d="M3388 8205 c-2 -3 -57 -5 -121 -6 -132 -1 -126 3 -126 -89 1 -138 0
-459 -2 -500 -1 -25 -1 -49 -1 -55 0 -5 1 -68 2 -140 0 -71 5 -143 10 -160 6
-18 6 -42 1 -60 -5 -16 -10 -24 -10 -17 -1 7 -6 10 -12 7 -6 -4 -8 -14 -4 -22
4 -13 3 -13 -8 -4 -30 24 -38 -48 -28 -256 1 -22 6 -33 16 -33 23 0 31 -34 34
-135 1 -49 5 -93 7 -97 3 -4 0 -8 -7 -8 -9 0 -10 -18 -4 -67 4 -38 7 -72 7
-78 0 -5 -1 -49 -2 -97 -1 -50 -6 -88 -11 -88 -6 0 -7 -5 -4 -10 6 -9 17 -221
16 -293 0 -21 4 -27 14 -23 8 3 17 1 20 -4 9 -15 242 -12 278 4 32 13 33 14
31 72 -3 94 -4 95 -13 89 -6 -3 -5 10 1 31 7 27 6 43 -2 59 -9 16 -9 28 -2 41
7 12 6 23 -2 36 -8 13 -8 21 0 26 12 8 13 470 1 490 -11 16 0 49 18 56 8 3 15
2 15 -2 0 -5 13 -7 29 -6 15 1 34 -2 42 -6 7 -5 24 -3 40 5 24 13 29 12 54 -9
22 -19 25 -27 16 -43 -5 -11 -8 -23 -4 -27 3 -3 7 -155 9 -338 1 -183 6 -361
9 -396 9 -89 23 -96 179 -97 66 -1 126 3 133 8 7 5 16 6 21 3 6 -4 8 150 6
402 -4 372 -6 436 -18 497 -2 11 -4 24 -5 28 0 5 -24 32 -51 62 l-51 53 29 21
c29 20 49 56 55 96 1 11 5 25 8 30 9 15 12 116 13 520 0 204 -3 387 -8 407
-11 47 -40 74 -107 97 -46 15 -83 18 -259 16 -113 -1 -215 2 -226 6 -12 4 -24
6 -26 4z m212 -337 c3 -4 20 -8 37 -10 l31 -2 -3 -290 c-1 -160 1 -300 5 -310
11 -31 -11 -74 -44 -86 -55 -19 -202 8 -165 31 9 5 13 89 14 326 2 175 3 322
4 326 3 20 108 33 121 15z m-141 -647 c0 -14 -1 -14 -6 -1 -3 8 -10 24 -15 35
-9 20 -9 20 6 1 9 -11 16 -27 15 -35z m-289 -1012 c0 -10 -4 -19 -10 -19 -5 0
-10 12 -10 26 0 14 4 23 10 19 6 -3 10 -15 10 -26z m847 -199 c1 -11 -2 -22
-6 -24 -6 -4 -7 26 -2 42 3 8 7 -1 8 -18z m-27 -9 c0 -5 -7 -12 -16 -15 -24
-9 -28 -7 -14 9 14 17 30 20 30 6z"/>
<path d="M7197 8183 c-37 -23 -79 -73 -91 -108 -8 -22 -21 -213 -19 -290 4
-171 12 -325 18 -334 3 -6 2 -11 -2 -11 -5 0 -7 -17 -5 -37 4 -50 12 -214 11
-233 -15 -269 -17 -994 -4 -1046 13 -54 55 -107 101 -129 33 -15 74 -18 308
-21 175 -1 285 1 311 9 22 6 43 10 47 9 16 -4 89 83 97 117 5 20 10 285 10
595 1 464 -2 562 -13 578 -8 11 -12 27 -9 34 3 10 0 12 -10 8 -8 -3 -92 -6
-187 -7 -153 -2 -173 -5 -182 -20 -5 -10 -11 -75 -13 -143 -4 -124 -4 -125 21
-136 13 -6 24 -15 24 -20 0 -5 4 -7 9 -3 5 3 12 -3 15 -12 5 -15 9 -182 6
-233 0 -8 1 -94 2 -191 3 -146 6 -180 21 -202 14 -22 14 -25 2 -21 -11 4 -15
0 -15 -16 0 -12 -7 -28 -15 -36 -8 -9 -15 -11 -15 -5 0 6 -10 11 -22 11 -13 0
-32 1 -43 1 -11 0 -25 -1 -30 -2 -6 -2 -29 1 -52 5 -41 7 -53 18 -34 31 6 3
10 13 10 23 5 199 5 365 -1 368 -5 3 -5 13 0 22 13 29 1 1081 -13 1115 -14 34
11 46 96 45 43 -1 82 1 85 5 11 11 65 -23 57 -36 -11 -17 -4 -126 8 -150 9
-16 9 -19 -3 -14 -11 4 -14 -1 -10 -19 5 -27 -3 -26 161 -28 107 -1 114 0 121
20 5 11 10 110 13 220 5 218 1 235 -51 273 -44 31 -76 34 -389 35 -285 1 -292
0 -326 -21z m732 -151 c8 -14 6 -19 -5 -19 -7 0 -14 9 -14 19 0 10 2 18 5 18
2 0 9 -8 14 -18z m-8 -55 c-10 -9 -11 -8 -5 6 3 10 9 15 12 12 3 -3 0 -11 -7
-18z m-18 -694 c-7 -2 -21 -2 -30 0 -10 3 -4 5 12 5 17 0 24 -2 18 -5z m-200
-854 c4 -16 2 -19 -11 -14 -14 5 -14 4 1 -12 15 -18 15 -19 -3 -19 -16 0 -20
7 -20 33 0 37 24 46 33 12z m227 -154 c0 -8 -4 -15 -10 -15 -5 0 -7 7 -4 15 4
8 8 15 10 15 2 0 4 -7 4 -15z m-317 -30 c-6 -16 -16 -19 -26 -8 -9 8 13 34 24
28 4 -3 6 -12 2 -20z m324 -157 c-3 -8 -6 -5 -6 6 -1 11 2 17 5 13 3 -3 4 -12
1 -19z"/>
<path d="M8720 8180 c-22 -22 -26 -46 -9 -52 5 -2 7 -11 3 -22 -5 -13 -9 -14
-15 -5 -7 13 -39 -77 -39 -112 0 -10 -4 -20 -9 -23 -4 -3 -6 -17 -3 -31 2 -14
0 -25 -6 -25 -8 0 -28 -66 -37 -120 0 -3 -3 -10 -7 -16 -8 -13 -11 -71 -5 -99
3 -11 -4 -28 -15 -39 -11 -10 -17 -24 -14 -32 4 -11 2 -12 -14 -1 -11 6 -20
16 -21 22 -2 30 -9 57 -29 125 -12 41 -28 100 -35 130 -64 263 -83 318 -107
304 -6 -4 -69 -9 -142 -11 -72 -3 -138 -6 -148 -6 -13 -1 -15 -10 -12 -56 3
-30 11 -69 19 -86 8 -16 16 -41 19 -55 2 -14 9 -38 14 -55 5 -16 15 -50 23
-75 7 -25 19 -52 26 -61 8 -9 16 -29 18 -45 6 -42 39 -159 65 -229 12 -33 23
-68 25 -77 10 -47 39 -145 49 -163 5 -11 11 -24 13 -30 1 -5 7 -28 13 -50 6
-22 13 -48 15 -58 2 -10 7 -28 11 -39 7 -23 11 -61 18 -163 2 -38 5 -70 6 -70
8 0 4 -48 -5 -65 -9 -17 -9 -36 0 -80 6 -31 15 -62 19 -68 4 -7 2 -12 -4 -12
-7 0 -8 -6 -1 -18 7 -13 6 -23 -1 -30 -7 -7 -8 -12 -4 -12 5 0 3 -6 -3 -14
-11 -13 -17 -249 -8 -309 2 -15 1 -29 -2 -31 -4 -3 -6 -47 -6 -100 0 -53 -4
-97 -9 -99 -5 -2 -1 -11 8 -20 21 -21 35 -22 217 -16 73 3 95 7 92 16 -3 7 -1
13 5 13 5 0 12 -7 16 -15 7 -19 35 -9 35 13 0 9 2 256 4 547 2 394 6 536 15
552 7 12 11 26 11 30 -1 4 0 15 4 23 3 8 13 40 22 70 9 30 26 84 37 120 10 36
22 79 25 95 3 17 9 38 14 47 5 9 9 27 9 40 0 13 6 33 14 44 12 17 28 65 42
124 1 8 13 47 24 85 12 39 25 84 30 100 4 17 13 43 19 58 6 16 11 39 11 51 0
13 6 29 14 36 8 6 13 17 10 25 -3 7 1 26 9 42 8 15 12 34 10 41 -3 6 1 12 8
12 9 0 10 3 3 10 -13 13 -52 16 -84 6 -17 -5 -21 -4 -11 2 27 19 1 35 -48 28
-57 -8 -55 -8 -115 0 -43 6 -49 5 -43 -10 5 -11 1 -16 -13 -16 -13 0 -18 5
-14 15 8 21 -2 19 -26 -5z m302 -32 c-7 -7 -12 -8 -12 -2 0 14 12 26 19 19 2
-3 -1 -11 -7 -17z"/>
<path d="M2208 8182 c-23 -5 -31 -52 -24 -149 3 -43 5 -96 6 -119 0 -63 26
-84 103 -84 35 0 67 4 73 9 17 16 72 1 78 -22 4 -17 2 -575 -5 -1287 -1 -69
-1 -147 0 -175 0 -27 0 -121 -2 -208 -2 -144 0 -160 16 -172 26 -19 306 -9
326 11 10 10 11 57 14 629 2 308 -1 571 -6 585 -5 16 -4 26 3 28 7 3 7 9 -2
20 -15 17 -14 22 2 32 9 6 13 78 15 263 2 146 7 263 13 274 8 14 21 18 59 17
26 0 59 3 72 8 17 6 27 4 35 -8 11 -15 14 -15 29 1 9 9 17 25 17 36 1 10 1 79
1 152 l1 132 -29 10 c-15 5 -30 12 -33 15 -9 9 -444 3 -481 -7 -25 -7 -42 -7
-55 0 -18 10 -187 17 -226 9z m576 -408 c3 -8 2 -12 -4 -9 -6 3 -10 10 -10 16
0 14 7 11 14 -7z m-7 -46 c-3 -8 -6 -5 -6 6 -1 11 2 17 5 13 3 -3 4 -12 1 -19z"/>
<path d="M4615 8182 c-2 -2 -34 -4 -71 -5 -60 -2 -69 -5 -69 -20 0 -10 -8 -24
-17 -31 -10 -7 -17 -29 -19 -56 -1 -25 -6 -54 -10 -66 -4 -11 -10 -45 -14 -75
-4 -30 -10 -72 -14 -94 -4 -22 -7 -71 -7 -110 1 -46 -4 -75 -12 -84 -9 -9 -12
-25 -8 -43 3 -17 1 -38 -5 -49 -5 -11 -12 -41 -15 -67 -3 -26 -7 -57 -10 -69
-2 -12 0 -25 6 -28 6 -4 4 -12 -5 -21 -8 -9 -15 -30 -16 -47 0 -18 -2 -39 -4
-47 -6 -28 -13 -75 -20 -124 -3 -27 -8 -52 -10 -55 -1 -3 -6 -44 -10 -91 -4
-47 -8 -87 -10 -90 -2 -3 -6 -33 -10 -65 -3 -33 -9 -68 -11 -77 -7 -23 -13
-56 -20 -98 -3 -19 -7 -43 -10 -52 -3 -10 -7 -39 -9 -65 -2 -27 -11 -93 -19
-148 -8 -55 -18 -118 -21 -140 -3 -22 -8 -56 -11 -75 -3 -19 -7 -48 -9 -65 -2
-16 -6 -53 -9 -82 -4 -33 -2 -54 5 -58 10 -7 162 -17 199 -14 8 0 40 1 72 2
31 1 54 6 50 11 -3 5 2 7 11 3 13 -5 17 -1 17 18 0 13 4 26 9 29 4 3 6 17 4
31 -3 13 -2 33 2 42 4 10 9 32 10 48 2 28 16 186 20 229 2 24 26 33 73 29 19
-1 43 2 53 8 12 6 19 6 19 0 0 -5 8 -12 19 -16 19 -6 27 -46 36 -180 6 -77 14
-156 21 -198 8 -50 33 -60 149 -57 154 3 157 3 166 28 5 12 11 22 14 22 4 0 3
-4 0 -10 -3 -6 4 -10 17 -11 13 0 17 -3 10 -6 -6 -2 -10 -9 -6 -14 3 -5 9 -7
14 -4 11 7 2 65 -11 79 -12 14 -11 29 1 21 14 -9 12 10 -4 50 -8 18 -13 35
-11 37 2 2 0 35 -6 73 -6 39 -12 93 -14 121 -4 56 -33 250 -42 274 -3 8 -6 38
-8 65 -2 28 -6 61 -10 75 -3 14 -8 41 -10 60 -3 19 -8 51 -11 70 -3 19 -7 48
-9 63 -2 16 -11 37 -21 48 -16 18 -16 19 -1 13 19 -7 20 -4 7 51 -5 22 -12 67
-15 100 -4 33 -14 79 -22 103 -7 23 -12 46 -9 50 2 4 -2 41 -10 82 -8 41 -17
89 -18 105 -2 17 -7 50 -10 75 -4 25 -9 59 -11 75 -2 17 -9 59 -15 95 -21 127
-31 185 -35 215 -14 103 -36 195 -48 202 -11 7 -165 11 -172 5z m49 -947 c4
-27 7 -54 7 -60 1 -5 -1 -23 -4 -39 -4 -16 0 -43 8 -62 7 -18 11 -35 8 -38 -8
-7 -6 -89 2 -151 7 -48 11 -83 19 -153 4 -32 4 -33 -32 -27 -54 9 -122 27
-122 33 0 3 6 10 14 16 10 7 16 44 21 111 4 55 9 103 11 107 3 4 7 42 9 83 3
42 9 84 14 93 5 9 5 26 1 37 -9 25 5 85 21 96 17 10 16 12 23 -46z m386 -1136
c0 -5 -4 -9 -10 -9 -5 0 -10 7 -10 16 0 8 5 12 10 9 6 -3 10 -10 10 -16z m4
-47 c3 -5 -1 -9 -9 -9 -8 0 -12 4 -9 9 3 4 7 8 9 8 2 0 6 -4 9 -8z m-37 -48
c-3 -3 -12 -4 -19 -1 -8 3 -5 6 6 6 11 1 17 -2 13 -5z"/>
<path d="M5268 8182 c-21 -4 -28 -38 -24 -127 1 -38 3 -95 4 -126 2 -41 8 -61
23 -78 19 -20 28 -22 88 -17 99 9 122 8 137 -5 11 -9 13 -111 9 -592 -3 -320
-5 -640 -5 -712 -1 -175 -1 -195 -3 -378 -2 -196 -10 -187 146 -181 127 4 187
10 196 19 3 4 7 21 8 38 7 81 8 1155 1 1174 -4 13 -3 25 3 29 6 4 6 11 -2 20
-9 11 -9 18 1 29 9 11 13 84 15 269 2 149 7 262 13 273 8 15 21 19 59 17 26 0
58 3 71 8 17 6 28 4 40 -8 14 -15 17 -15 29 2 7 10 13 26 13 36 1 10 1 77 1
150 l0 132 -43 16 c-35 13 -82 15 -253 14 -115 -1 -226 -6 -246 -11 -25 -7
-42 -7 -55 0 -18 10 -188 17 -226 9z m576 -408 c3 -8 2 -12 -4 -9 -6 3 -10 10
-10 16 0 14 7 11 14 -7z m0 -39 c3 -8 1 -15 -4 -15 -6 0 -10 7 -10 15 0 8 2
15 4 15 2 0 6 -7 10 -15z m-297 -247 c-3 -8 -6 -5 -6 6 -1 11 2 17 5 13 3 -3
4 -12 1 -19z"/>
<path d="M6223 8173 c-3 -8 -13 -13 -23 -10 -14 4 -16 -2 -14 -37 3 -34 5
-244 4 -321 -2 -91 2 -181 9 -190 5 -5 11 -27 14 -47 4 -28 2 -38 -7 -38 -19
0 -22 -20 -21 -132 1 -75 -2 -98 -12 -98 -22 0 -33 -47 -33 -145 0 -52 4 -105
10 -119 6 -17 6 -26 0 -26 -18 0 -11 -20 15 -42 14 -12 25 -31 25 -43 0 -12 3
-25 7 -28 3 -4 5 -53 5 -109 -1 -57 -1 -134 0 -173 0 -38 0 -86 0 -105 -1 -19
-2 -142 -3 -274 -1 -191 2 -241 13 -252 9 -10 46 -15 118 -17 58 -1 110 -6
116 -10 6 -3 14 -3 18 1 4 4 116 8 249 8 133 1 244 3 247 3 3 1 -2 6 -10 11
-13 9 -13 10 0 10 13 0 15 20 14 124 -1 176 7 170 -217 171 -95 1 -178 4 -184
8 -13 8 -24 47 -14 47 5 0 7 138 7 306 -1 203 2 308 9 312 5 4 92 7 193 8 100
1 185 4 188 7 3 3 1 14 -5 26 -7 13 -8 22 -1 26 6 4 9 58 7 135 l-2 130 -25 1
c-130 6 -328 4 -342 -3 -13 -6 -18 -5 -18 5 0 8 -9 22 -19 31 -20 18 -25 56
-7 53 5 -1 10 90 13 223 2 124 5 234 8 246 4 20 10 20 197 20 106 -1 198 -4
204 -8 8 -5 14 2 19 20 7 30 8 223 0 230 -3 3 0 11 7 19 8 10 8 17 0 25 -7 7
-12 8 -12 3 0 -6 -4 -4 -9 4 -14 22 -105 29 -210 17 -32 -4 -51 -2 -51 4 0 7
-82 10 -236 9 -197 -1 -236 -4 -241 -16z m294 -425 c-3 -8 -6 -5 -6 6 -1 11 2
17 5 13 3 -3 4 -12 1 -19z m378 -507 c-3 -6 -11 -11 -17 -11 -6 0 -6 6 2 15
14 17 26 13 15 -4z m-75 -191 c0 -5 -5 -10 -11 -10 -5 0 -7 5 -4 10 3 6 8 10
11 10 2 0 4 -4 4 -10z m43 -797 c-7 -2 -21 -2 -30 0 -10 3 -4 5 12 5 17 0 24
-2 18 -5z"/>
<path d="M5034 5518 l-80 -163 -80 -11 c-43 -7 -95 -15 -114 -18 -19 -3 -60
-9 -90 -12 -30 -4 -61 -10 -68 -13 -8 -5 24 -43 97 -116 61 -59 114 -111 118
-114 32 -24 33 -37 7 -182 -14 -79 -27 -161 -30 -182 l-5 -37 33 18 c18 10 92
49 165 87 l132 69 143 -73 c79 -41 147 -78 152 -82 24 -22 38 -9 33 29 -3 20
-8 44 -11 52 -3 8 -7 33 -10 55 -3 22 -10 65 -15 95 -22 116 -22 114 3 140 13
14 71 72 130 129 78 76 104 106 94 112 -12 8 -42 13 -60 10 -4 0 -31 4 -60 9
-29 6 -66 12 -83 14 -16 2 -56 7 -88 11 l-58 7 -82 164 c-45 90 -84 164 -87
164 -3 0 -42 -73 -86 -162z"/>
<path d="M1290 5185 l0 -155 1575 0 1575 0 0 155 0 155 -1575 0 -1575 0 0
-155z"/>
<path d="M5790 5185 l0 -155 1505 0 1505 0 0 155 0 155 -1505 0 -1505 0 0
-155z"/>
<path d="M1618 4405 c-2 -2 -59 -5 -125 -6 -103 -1 -123 -4 -129 -17 -4 -10
-6 -21 -4 -27 1 -5 2 -82 1 -170 -1 -88 -2 -198 -1 -245 1 -108 1 -97 0 -155
-2 -159 2 -308 10 -334 5 -17 5 -43 0 -58 -5 -15 -9 -22 -9 -15 -2 22 -40 -10
-51 -43 -5 -16 -9 -63 -7 -102 1 -42 -2 -75 -8 -77 -5 -3 -4 -5 3 -5 7 -1 12
-16 12 -41 0 -28 4 -40 14 -40 23 0 28 -15 32 -113 3 -51 7 -100 9 -109 2 -10
-1 -18 -5 -18 -5 0 -6 -30 -3 -67 2 -38 5 -75 4 -83 0 -8 0 -52 -1 -97 0 -50
-5 -83 -11 -83 -6 0 -8 -4 -4 -10 3 -5 8 -67 11 -137 7 -168 8 -179 15 -173 4
3 16 -3 26 -13 11 -9 22 -14 26 -11 3 3 55 6 116 5 62 -1 112 2 115 8 4 5 15
8 26 6 11 -2 20 -1 21 3 5 37 2 145 -4 149 -5 3 -5 23 -2 44 4 23 3 45 -3 52
-11 13 -11 42 0 53 4 3 1 15 -5 25 -8 13 -9 22 -2 27 15 10 14 471 -1 496 -21
36 6 49 86 41 44 -4 70 -3 70 3 0 6 9 8 20 5 11 -3 18 -9 15 -13 -3 -5 2 -10
11 -12 15 -3 17 -40 20 -388 2 -211 6 -402 10 -425 11 -69 28 -78 168 -79 66
-1 133 3 147 8 l27 10 -4 390 c-3 215 -4 407 -4 427 1 56 -28 119 -78 171
l-44 46 26 17 c31 20 52 56 59 100 3 17 8 38 12 48 11 26 12 866 2 907 -12 48
-54 90 -89 90 -17 0 -27 4 -23 10 8 12 7 12 -255 14 -118 1 -220 5 -226 8 -6
4 -13 5 -16 3z m202 -337 c3 -4 20 -8 37 -10 l30 -2 -2 -291 c-1 -159 1 -300
6 -311 4 -13 3 -26 -4 -33 -6 -6 -7 -11 -2 -11 5 0 -2 -11 -14 -24 -22 -23
-28 -25 -104 -20 -76 5 -111 19 -85 35 8 5 12 104 13 316 3 374 0 342 27 352
27 10 91 9 98 -1z m-150 -613 c0 -8 -2 -15 -4 -15 -2 0 -6 7 -10 15 -3 8 -1
15 4 15 6 0 10 -7 10 -15z m-280 -1053 c0 -21 -2 -24 -10 -12 -13 20 -13 53 0
45 6 -3 10 -18 10 -33z m842 -214 c-8 -8 -9 -4 -5 13 4 13 8 18 11 10 2 -7 -1
-18 -6 -23z m-22 13 c0 -14 -29 -21 -36 -9 -4 7 -3 8 4 4 7 -4 12 -2 12 3 0 6
5 11 10 11 6 0 10 -4 10 -9z"/>
<path d="M4643 4397 c-44 -6 -63 -13 -63 -23 0 -8 -4 -14 -10 -14 -5 0 -9 -58
-9 -145 1 -112 4 -149 15 -159 18 -19 18 -44 0 -62 -12 -12 -15 -83 -14 -437
0 -232 0 -512 -1 -622 -1 -298 -1 -316 10 -338 7 -12 7 -17 1 -13 -7 4 -10
-60 -11 -183 -1 -232 -1 -231 104 -231 39 0 79 1 90 1 11 1 65 1 120 1 55 -1
138 0 185 1 116 3 120 8 127 135 4 60 1 112 -5 131 -8 23 -8 31 1 31 8 0 8 3
0 11 -15 15 -201 15 -215 1 -18 -18 -63 12 -66 43 l-2 27 18 -21 c16 -21 17 6
15 591 0 337 -1 699 -1 803 -1 327 -2 379 -8 405 -3 14 -6 32 -6 40 -1 31 -17
38 -64 29 -26 -5 -70 -5 -98 -1 -28 4 -79 4 -113 -1z m-50 -317 c3 -11 1 -18
-4 -14 -5 3 -9 12 -9 20 0 20 7 17 13 -6z m47 -574 c0 -2 -7 -6 -15 -10 -8 -3
-15 -1 -15 4 0 6 7 10 15 10 8 0 15 -2 15 -4z m-50 -206 c0 -5 -5 -10 -11 -10
-5 0 -7 5 -4 10 3 6 8 10 11 10 2 0 4 -4 4 -10z"/>
<path d="M2503 4383 c-15 -6 -43 -27 -62 -46 -29 -28 -35 -43 -39 -88 -3 -43
-5 -239 -4 -364 1 -11 0 -108 -1 -215 -2 -107 1 -210 6 -228 5 -20 4 -38 -1
-45 -5 -7 -8 -30 -5 -52 2 -22 5 -262 6 -534 3 -482 3 -494 23 -510 11 -9 19
-21 17 -28 -9 -27 73 -89 132 -99 49 -9 547 -8 595 1 19 4 51 20 72 37 54 42
75 117 77 268 1 63 4 275 7 470 3 195 5 360 4 365 0 6 -2 219 -4 475 -3 434
-4 469 -23 520 -17 46 -24 56 -46 58 -15 2 -27 8 -27 13 0 5 -25 9 -55 8 -32
-1 -55 -7 -55 -13 0 -7 -4 -6 -8 2 -12 17 -567 22 -609 5z m452 -311 c6 -4 10
-205 11 -562 1 -305 2 -562 3 -570 0 -8 0 -94 0 -190 -2 -198 0 -222 17 -216
7 3 15 -2 18 -10 5 -14 -3 -16 -64 -18 -14 -1 -45 2 -69 6 -24 4 -48 5 -55 1
-6 -4 -24 -8 -41 -10 l-30 -2 2 777 c2 523 6 778 13 782 6 4 43 7 82 8 39 1
73 4 76 7 7 7 25 6 37 -3z m37 -94 c-7 -7 -12 -8 -12 -2 0 6 3 14 7 17 3 4 9
5 12 2 2 -3 -1 -11 -7 -17z m-262 -38 c0 -5 -5 -10 -11 -10 -5 0 -7 5 -4 10 3
6 8 10 11 10 2 0 4 -4 4 -10z m-10 -764 c0 -3 -4 -8 -10 -11 -5 -3 -10 -1 -10
4 0 6 5 11 10 11 6 0 10 -2 10 -4z m230 -706 c0 -19 -18 -19 -23 -1 -3 14 -1
18 9 14 8 -3 14 -9 14 -13z"/>
<path d="M3691 4389 c-19 -4 -66 -6 -105 -4 -112 6 -105 18 -105 -162 0 -86 3
-161 5 -165 3 -5 12 -4 20 3 12 9 14 6 13 -17 -1 -16 -3 -21 -6 -12 -2 9 -10
15 -18 12 -14 -6 -15 -25 -14 -278 0 -54 2 -102 4 -107 3 -4 1 -10 -5 -14 -6
-4 -8 -10 -5 -16 3 -5 5 -109 4 -231 -1 -123 -1 -270 -1 -328 0 -58 0 -136 0
-175 -4 -394 -2 -583 6 -600 5 -11 8 -24 7 -28 -3 -16 19 -44 57 -71 l40 -27
195 4 c107 3 200 8 206 11 6 4 11 3 11 -1 0 -11 141 -9 158 1 7 4 12 3 12 -3
0 -10 72 -8 111 4 44 14 81 48 101 93 18 40 21 73 24 256 4 224 12 459 18 541
2 28 -1 58 -5 67 -5 9 -6 19 -2 21 5 3 7 115 6 249 -6 594 -8 663 -21 686 -8
14 -10 28 -3 40 5 9 9 20 10 25 1 4 1 8 2 10 5 16 4 47 -2 47 -10 0 -6 51 5
69 4 6 3 11 -3 11 -5 0 -8 8 -7 18 6 39 -25 48 -176 49 -79 1 -138 -1 -131 -4
10 -3 10 -7 0 -18 -7 -7 -15 -11 -19 -9 -15 10 -18 -105 -13 -586 5 -571 10
-774 20 -789 3 -7 0 -8 -9 -5 -21 8 -22 -49 -1 -66 19 -15 20 -31 2 -24 -11 4
-14 -15 -13 -88 0 -118 -6 -257 -12 -281 -2 -10 -14 -23 -25 -28 -17 -10 -19
-9 -13 6 5 15 4 16 -9 5 -9 -7 -18 -10 -22 -6 -3 3 -1 6 5 6 7 0 12 6 12 13 0
14 -76 17 -98 3 -7 -4 -12 -4 -12 1 0 4 -5 0 -11 -10 -10 -18 -13 -17 -40 9
-15 15 -26 31 -23 35 7 12 17 254 16 414 -1 77 0 156 0 175 2 84 0 602 -3 900
-4 315 -5 325 -24 328 -11 2 -24 9 -30 14 -7 7 3 8 30 3 31 -5 37 -4 28 5 -6
7 -31 12 -54 12 -24 -1 -46 3 -49 7 -3 4 -20 4 -39 0z m678 -48 c9 -16 8 -18
-9 -14 -21 5 -25 15 -13 26 9 10 11 9 22 -12z m-862 -393 c-3 -8 -6 -5 -6 6
-1 11 2 17 5 13 3 -3 4 -12 1 -19z m603 -22 c0 -3 -4 -8 -10 -11 -5 -3 -10 -1
-10 4 0 6 5 11 10 11 6 0 10 -2 10 -4z m-13 -95 c0 -11 -5 -18 -9 -15 -4 3 -5
11 -1 19 7 21 12 19 10 -4z"/>
<path d="M5303 4374 c-3 -8 -12 -13 -21 -12 -13 2 -16 -5 -14 -32 1 -19 2
-141 3 -270 0 -129 4 -239 8 -245 5 -5 11 -27 14 -47 4 -28 2 -38 -7 -38 -19
0 -22 -21 -21 -130 1 -88 -1 -96 -22 -113 -21 -17 -23 -26 -23 -123 0 -58 5
-114 10 -125 6 -10 7 -19 2 -19 -17 0 -5 -41 16 -56 12 -8 22 -25 22 -38 0
-12 3 -25 6 -29 4 -3 6 -52 5 -109 0 -57 0 -134 0 -173 1 -38 1 -86 1 -105 -1
-19 -2 -142 -3 -273 -1 -208 0 -241 14 -255 15 -14 59 -16 378 -16 198 -1 366
2 372 6 8 5 4 8 -8 8 -13 0 -16 3 -8 8 7 5 13 48 16 117 3 94 1 114 -15 141
-10 18 -28 34 -41 36 -12 2 -91 4 -174 3 -84 0 -153 3 -153 8 0 4 -4 6 -9 2
-5 -3 -16 8 -24 24 -11 22 -12 28 -2 25 16 -6 19 110 4 139 -5 9 -6 17 -1 17
5 0 8 102 7 226 -1 147 3 228 10 232 5 4 92 7 193 8 101 1 185 4 188 7 3 3 1
14 -5 26 -7 13 -8 22 -1 26 13 8 8 265 -5 266 -52 6 -335 3 -352 -3 -16 -5
-23 -4 -23 6 0 7 -9 21 -20 31 -22 20 -27 57 -8 52 8 -1 12 57 15 223 2 124 5
234 8 246 4 19 11 20 197 20 106 -1 199 -5 207 -10 10 -6 12 -6 7 2 -4 7 -2
12 4 12 7 0 10 39 9 124 0 69 2 129 5 135 4 6 -1 18 -11 28 -23 23 -88 29
-210 20 -36 -3 -63 -1 -63 4 0 6 -95 9 -236 8 -191 -1 -237 -4 -241 -15z m666
-935 c-19 -11 -24 -3 -8 14 8 9 16 11 18 5 2 -6 -3 -14 -10 -19z m-26 -986
c-7 -2 -21 -2 -30 0 -10 3 -4 5 12 5 17 0 24 -2 18 -5z"/>
<path d="M6198 4382 c-23 -4 -31 -52 -24 -149 3 -43 5 -96 6 -119 0 -63 26
-84 103 -84 35 0 67 4 73 9 17 16 72 1 78 -22 3 -11 3 -277 1 -591 -3 -314 -5
-629 -5 -701 -1 -176 -1 -196 -3 -378 -2 -196 -9 -187 141 -182 113 4 193 13
202 21 9 10 10 64 13 629 2 308 0 570 -5 582 -4 13 -3 25 3 29 6 4 6 11 -2 20
-9 11 -9 17 1 29 9 11 13 84 15 268 2 290 4 298 65 292 22 -2 54 0 71 5 24 7
35 6 47 -6 14 -15 17 -15 29 2 15 20 14 17 14 169 0 167 0 167 -10 161 -5 -3
-24 0 -42 7 -25 10 -90 12 -244 10 -293 -5 -298 -5 -410 -1 -55 2 -108 2 -117
0z m576 -408 c3 -8 2 -12 -4 -9 -6 3 -10 10 -10 16 0 14 7 11 14 -7z m-7 -46
c-3 -8 -6 -5 -6 6 -1 11 2 17 5 13 3 -3 4 -12 1 -19z"/>
<path d="M7148 4382 c-21 -4 -28 -44 -24 -132 1 -36 3 -90 4 -121 3 -79 23
-99 105 -99 35 0 67 4 73 9 17 16 72 1 78 -23 3 -11 3 -277 1 -591 -6 -774 -7
-813 -6 -865 0 -25 -1 -118 -2 -208 -2 -148 0 -165 16 -177 26 -18 306 -9 326
11 3 3 7 20 8 37 6 87 8 1146 2 1169 -4 16 -3 30 2 34 6 4 6 11 -2 20 -9 11
-9 18 1 29 9 11 13 83 15 269 2 152 7 262 14 273 7 15 19 19 47 18 20 -1 52 1
72 6 30 7 40 5 50 -9 12 -16 14 -16 28 2 8 11 14 27 14 35 1 39 1 268 1 282
-1 9 -7 17 -13 16 -30 -1 -49 4 -45 11 7 11 -442 6 -484 -6 -25 -6 -42 -6 -55
1 -18 10 -188 17 -226 9z m576 -408 c3 -8 2 -12 -4 -9 -6 3 -10 10 -10 16 0
14 7 11 14 -7z m0 -40 c3 -8 2 -12 -4 -9 -6 3 -10 10 -10 16 0 14 7 11 14 -7z"/>
<path d="M8103 4374 c-3 -8 -12 -13 -21 -12 -13 3 -15 -11 -13 -97 2 -55 3
-120 3 -145 0 -25 0 -76 0 -115 0 -38 -1 -94 -2 -123 -1 -30 3 -59 8 -65 5 -7
12 -29 15 -49 4 -29 2 -38 -9 -38 -16 0 -16 -1 -18 -130 0 -52 -4 -95 -8 -95
-4 0 -15 -10 -24 -23 -14 -20 -16 -45 -12 -163 4 -129 6 -141 26 -155 12 -8
22 -25 22 -38 0 -12 3 -25 6 -29 4 -3 6 -43 5 -89 0 -46 0 -121 0 -168 1 -97
1 -76 -3 -398 -3 -225 -2 -245 15 -260 16 -14 59 -16 375 -17 196 -1 361 1
366 3 4 3 2 8 -5 13 -11 7 -11 9 1 9 12 0 15 19 14 113 0 61 -4 122 -8 135
-13 40 -41 46 -218 47 -94 0 -172 5 -177 10 -13 15 -25 59 -14 52 6 -4 9 110
8 299 0 202 3 308 10 312 5 4 92 7 193 8 101 1 185 4 188 7 3 3 1 14 -5 26 -7
12 -7 22 -1 26 5 3 8 61 7 135 l-2 130 -25 1 c-132 6 -328 4 -342 -3 -12 -6
-18 -5 -18 3 0 6 -9 22 -20 36 -22 28 -26 54 -8 50 8 -1 12 60 15 223 2 124 5
234 8 245 4 20 11 21 197 20 106 0 199 -4 207 -9 9 -6 12 -5 7 2 -3 5 -1 12 5
14 11 4 15 221 4 238 -3 5 -1 11 5 15 15 9 12 25 -4 25 -8 0 -16 6 -19 14 -5
12 -29 15 -122 18 -5 0 -38 -2 -72 -6 -39 -3 -63 -1 -63 5 0 6 -87 9 -236 8
-192 -1 -237 -4 -241 -15z m294 -426 c-3 -8 -6 -5 -6 6 -1 11 2 17 5 13 3 -3
4 -12 1 -19z m383 -496 c0 -13 -12 -22 -22 -16 -10 6 -1 24 13 24 5 0 9 -4 9
-8z m-83 -208 c-3 -3 -12 -4 -19 -1 -8 3 -5 6 6 6 11 1 17 -2 13 -5z m46 -791
c-7 -2 -21 -2 -30 0 -10 3 -4 5 12 5 17 0 24 -2 18 -5z"/>
</g>
</svg>
